<?xml version="1.0" ?><!DOCTYPE svg  PUBLIC '-//W3C//DTD SVG 1.1//EN'  'http://www.w3.org/Graphics/SVG/1.1/DTD/svg11.dtd'><svg height="74.000" viewBox="-20.000 -57.000 47.000 74.000" width="47.000" xmlns="http://www.w3.org/2000/svg"><line fill="none" stroke="none" stroke-linecap="round" stroke-width="2.0" x1="0.0" x2="0.0" y1="0.0" y2="0.0"/><polyline fill="none" points="0.0,-0.0 3.061616997868383e-16,-5.0 6.123233995736766e-16,-10.0 -1.9134171618254479,-14.619397662556434 -5.448951067758185,-18.15493156848917" stroke="#000" stroke-linecap="round" stroke-linejoin="round"/><line fill="none" stroke="#000" stroke-linecap="round" x1="-1.9134171618254479" x2="-3.826834323650896" y1="-14.619397662556434" y2="-19.238795325112868"/><polyline fill="none" points="-1.9134171618254479,-14.619397662556434 -3.826834323650896,-19.238795325112868 -3.826834323650896,-24.238795325112868 -3.826834323650896,-29.238795325112868" stroke="#000" stroke-linecap="round" stroke-linejoin="round"/><line fill="none" stroke="#000" stroke-linecap="round" x1="-3.826834323650896" x2="-7.362368229583633" y1="-19.238795325112868" y2="-22.774329231045606"/><polyline fill="none" points="6.123233995736766e-16,-10.0 3.347676434173875e-16,-14.999999999999998 -1.9134171618254479,-19.61939766255643" stroke="#000" stroke-linecap="round" stroke-linejoin="round"/><line fill="none" stroke="#000" stroke-linecap="round" x1="3.347676434173875e-16" x2="5.721188726109836e-17" y1="-14.999999999999998" y2="-19.999999999999996"/><polyline fill="none" points="3.347676434173875e-16,-14.999999999999998 5.721188726109836e-17,-19.999999999999996 1.9134171618254479,-24.619397662556427 3.8268343236508957,-29.238795325112857" stroke="#000" stroke-linecap="round" stroke-linejoin="round"/><line fill="none" stroke="#000" stroke-linecap="round" x1="5.721188726109836e-17" x2="-1.913417161825448" y1="-19.999999999999996" y2="-24.619397662556427"/><polyline fill="none" points="6.123233995736766e-16,-10.0 3.347676434173875e-16,-14.999999999999996 5.721188726109836e-17,-19.999999999999993 1.9134171618254472,-24.619397662556423 3.8268343236508944,-29.238795325112854 5.740251485476342,-33.858192987669284 5.740251485476342,-38.858192987669284" stroke="#000" stroke-linecap="round" stroke-linejoin="round"/><line fill="none" stroke="#000" stroke-linecap="round" x1="5.740251485476342" x2="7.653668647301789" y1="-33.858192987669284" y2="-38.477590650225714"/><polyline fill="none" points="5.740251485476342,-33.858192987669284 7.653668647301789,-38.477590650225714 11.189202553234523,-42.01312455615845 14.724736459167257,-45.54865846209119" stroke="#000" stroke-linecap="round" stroke-linejoin="round"/><line fill="none" stroke="#000" stroke-linecap="round" x1="7.653668647301789" x2="7.653668647301789" y1="-38.477590650225714" y2="-43.47759065022571"/><polyline fill="none" points="5.721188726109836e-17,-19.999999999999993 -1.9134171618254479,-24.619397662556423 -5.448951067758183,-28.154931568489157" stroke="#000" stroke-linecap="round" stroke-linejoin="round"/><line fill="none" stroke="#000" stroke-linecap="round" x1="-1.9134171618254479" x2="-3.8268343236508953" y1="-24.619397662556423" y2="-29.238795325112854"/><polyline fill="none" points="-1.9134171618254479,-24.619397662556423 -3.8268343236508953,-29.238795325112854 -3.826834323650895,-34.23879532511285 -3.8268343236508944,-39.23879532511285" stroke="#000" stroke-linecap="round" stroke-linejoin="round"/><line fill="none" stroke="#000" stroke-linecap="round" x1="-3.8268343236508953" x2="-7.36236822958363" y1="-29.238795325112854" y2="-32.77432923104559"/><polygon fill="#000" fill-rule="evenodd" points="-7.36236822958363,-32.77432923104559 -4.533941104837439,-22.874834294433924 -2.412620761277797,-27.824581762739758 2.5371267070280368,-29.9459021062994" stroke="#000" stroke-linejoin="round"/><line fill="none" stroke="none" stroke-linecap="round" stroke-width="2.0" x1="0.0" x2="0.0" y1="0.0" y2="0.0"/><line fill="none" stroke="none" stroke-linecap="round" stroke-width="2.0" x1="0.0" x2="0.0" y1="0.0" y2="0.0"/><polygon fill="#000" fill-rule="evenodd" points="0.0,-0.0 -9.0,-5.0 -7.0,-0.0 -9.0,5.0" stroke="#000" stroke-linejoin="round"/></svg>